<?xml version="1.0" encoding="UTF-8" standalone="no"?>
<svg
   fill="none"
   stroke="currentColor"
   stroke-linecap="round"
   stroke-linejoin="round"
   stroke-width="2"
   viewBox="0 0 24 24"
   version="1.1"
   id="svg6"
   sodipodi:docname="vasculature.svg"
   inkscape:version="1.1.2 (0a00cf5339, 2022-02-04)"
   xmlns:inkscape="http://www.inkscape.org/namespaces/inkscape"
   xmlns:sodipodi="http://sodipodi.sourceforge.net/DTD/sodipodi-0.dtd"
   xmlns="http://www.w3.org/2000/svg"
   xmlns:svg="http://www.w3.org/2000/svg">
  <defs
     id="defs10" />
  <sodipodi:namedview
     id="namedview8"
     pagecolor="#505050"
     bordercolor="#ffffff"
     borderopacity="1"
     inkscape:pageshadow="0"
     inkscape:pageopacity="0"
     inkscape:pagecheckerboard="1"
     showgrid="false"
     inkscape:zoom="20.529724"
     inkscape:cx="12.494079"
     inkscape:cy="4.2864677"
     inkscape:window-width="1948"
     inkscape:window-height="1389"
     inkscape:window-x="1527"
     inkscape:window-y="32"
     inkscape:window-maximized="0"
     inkscape:current-layer="svg6" />
  <path
     style="fill:none;stroke:#297d98;stroke-width:1.70099px;stroke-linecap:butt;stroke-linejoin:miter;stroke-opacity:1"
     d="M 5.8369092,0.17934084 C 5.6356472,1.2966935 5.4701067,2.1589769 5.6966217,3.3282155 c 0.02484,0.198714 0.1380847,0.401254 0.1380847,0.594993 C 5.2888306,4.1792262 4.6818439,4.2752828 4.1235211,4.4924084 3.2028275,4.9031698 2.0611246,5.1392099 1.1307391,5.6198409"
     id="path1609"
     sodipodi:nodetypes="ccccc" />
  <path
     style="fill:none;stroke:#297d98;stroke-width:1.70099px;stroke-linecap:butt;stroke-linejoin:miter;stroke-opacity:1"
     d="M 2.7497276,8.1770284 C 4.0402663,7.4191199 5.484432,7.2069446 6.6036166,6.6340206 c 0.9912928,1.160367 1.9176704,2.4185479 2.5890459,3.8009424 0.1551649,0.319505 0.3116542,0.639478 0.4373712,0.971676 0.2044925,0.540355 0.2933811,1.120525 0.4758453,1.666648 0.406917,1.217915 0.739608,2.488266 0.844148,3.787611 -0.05137,2.270521 -0.193576,4.688366 -0.20043,6.816251"
     id="path1611"
     sodipodi:nodetypes="cccsscc" />
  <path
     style="fill:none;stroke:#297d98;stroke-width:1.70099px;stroke-linecap:butt;stroke-linejoin:miter;stroke-opacity:1"
     d="m 14.313475,23.68178 c 0.02765,-1.3397 0.108427,-2.683896 -0.0039,-4.024479 -0.02223,-0.265229 -0.07641,-0.527025 -0.101536,-0.791996 -0.02616,-0.275961 -0.01599,-0.555129 -0.05223,-0.829952 -0.03159,-0.239758 -0.106649,-0.47188 -0.150606,-0.709685 -0.185018,-1.001442 -0.363025,-2.007345 -0.591461,-3.000539 -0.04243,-0.184438 -0.115422,-0.361384 -0.151609,-0.547145 -0.04839,-0.24842 -0.05045,-0.504131 -0.09439,-0.753379 -0.240844,-0.970271 -0.664292,-2.081625 -0.718104,-3.0523539 0.498782,0.082396 2.328852,1.6539829 2.774111,1.9010679 1.588743,0.914762 2.056491,0.934527 3.742124,1.656223"
     id="path1613"
     sodipodi:nodetypes="ccsccsccccc" />
  <path
     style="fill:none;stroke:#297d98;stroke-width:1.70099px;stroke-linecap:butt;stroke-linejoin:miter;stroke-opacity:1"
     d="m 13.744925,6.600701 0.633772,0.35316 c 0.940701,0.5075133 1.834641,1.1324101 2.627746,1.7063821 0.942273,0.6056112 2.184248,1.0001695 3.219405,1.4438079"
     id="path1615"
     sodipodi:nodetypes="cccc" />
  <path
     style="fill:none;stroke:#297d98;stroke-width:1.70099px;stroke-linecap:butt;stroke-linejoin:miter;stroke-opacity:1"
     d="m 20.063661,9.9328527 c -1.802874,-1.1821575 -2.635488,3.1296863 -1.136613,3.6590703 0.955718,0.283711 2.787357,-2.511387 1.136613,-3.6590703"
     id="path1617"
     sodipodi:nodetypes="ccc" />
  <path
     style="fill:none;stroke:#297d98;stroke-width:1.70099px;stroke-linecap:butt;stroke-linejoin:miter;stroke-opacity:1"
     d="M 13.744925,6.600701 C 13.463506,6.5087 13.157757,6.4715496 12.900665,6.324698 11.481487,5.5140606 9.799153,4.2683349 9.1157711,2.6858234 9.0450273,2.5220062 9.0191894,2.3421309 8.9630394,2.1727592 8.9356705,2.0902102 8.8827356,2.01603 8.8654366,1.9307975 8.768481,1.4529534 8.8158017,0.94297217 8.8158017,0.45853632"
     id="path1619" />
  <path
     style="fill:none;stroke:#297d98;stroke-width:1.70099px;stroke-linecap:butt;stroke-linejoin:miter;stroke-opacity:1"
     d="M 9.8772146,3.6788863 C 10.489462,3.7232209 11.313755,3.5324635 11.897403,3.3546936 12.429677,3.1925723 12.972728,3.061112 13.492206,2.8617654 14.254685,2.5691694 14.70061,1.8317995 15.627965,1.8317995"
     id="path1621"
     sodipodi:nodetypes="cssc" />
  <path
     style="fill:none;stroke:#297d98;stroke-width:1.70099px;stroke-linecap:butt;stroke-linejoin:miter;stroke-opacity:1"
     d="m 13.744925,6.600701 c 2.033847,-1.5251415 0.798956,-0.835081 3.365778,-1.7175064 1.272362,-0.4374149 1.245642,-0.6796083 2.399014,-0.3048331 0.578151,0.1878638 1.10254,0.5131749 1.663166,0.7482274 0.214798,0.090058 0.450123,0.1205029 0.672258,0.1905295 0.444828,0.1402295 0.755934,0.2349633 1.213214,0.2349633"
     id="path1623" />
  <path
     style="fill:none;stroke:#297d98;stroke-width:1.70099px;stroke-linecap:butt;stroke-linejoin:miter;stroke-opacity:1"
     d="m 18.438026,4.4699052 c 1.092581,-0.4860351 0.818302,-0.5544333 2.34692,-1.635474 0.02759,-0.019515 0.206592,-0.2294389 0.234863,-0.3283886 0.09657,-0.3380027 0.04677,-0.7260077 0.04677,-1.0755397"
     id="path1625"
     sodipodi:nodetypes="cscc" />
  <path
     style="fill:none;stroke:#297d98;stroke-width:1.70099px;stroke-linecap:butt;stroke-linejoin:miter;stroke-opacity:1"
     d="M 9.5449105,11.441943 C 8.5144006,10.9935 7.7762599,11.068734 7.1830571,11.82438 c -0.9314649,1.186539 -1.3101846,3.799784 -0.9895382,5.10527 0.088672,0.361015 0.2765307,0.711208 0.3313797,1.08364 0.023547,0.15991 -0.00876,0.323522 0,0.484925"
     id="path1627"
     sodipodi:nodetypes="csssc" />
  <path
     style="fill:none;stroke:#297d98;stroke-width:1.70099px;stroke-linecap:butt;stroke-linejoin:miter;stroke-opacity:1"
     d="m 14.219589,19.670542 c 1.171337,-0.909283 2.393538,-1.429244 3.403058,-2.448104 0.308964,-0.251583 0.562925,-0.354744 0.916073,-0.531711 0.09348,-0.04685 0.179169,-0.114781 0.280576,-0.14028 0.384721,-0.09676 0.901122,0.06693 1.261448,0.187051"
     id="path1629"
     sodipodi:nodetypes="ccscc" />
  <path
     style="fill:none;stroke:#297d98;stroke-width:1.70099px;stroke-linecap:butt;stroke-linejoin:miter;stroke-opacity:1"
     d="M 1.1710562,7.7899549 C 0.84721407,7.4168775 0.80086322,7.1294455 0.83106818,6.5959118 1.0280486,5.828848 1.1307391,5.6198409 1.5306547,5.3893654 2.4830158,5.3331903 2.8210329,5.6573797 3.2802597,6.6337892 3.2834292,7.7733105 3.0833196,7.9723004 2.5301145,8.2716484 1.9073651,8.4657729 1.4327658,8.077788 1.1710562,7.7899549 Z"
     id="path8143"
     sodipodi:nodetypes="cccccc" />
</svg>
