<?xml version="1.0" encoding="UTF-8" standalone="no"?>
<svg
   role="img"
   width="1000mm"
   height="1000mm"
   viewBox="0 0 1000 1000"
   style="max-width:1.6em; height: auto;"
   version="1.1"
   id="svg3"
   sodipodi:docname="gui-symbol.svg"
   inkscape:version="1.1.2 (0a00cf5339, 2022-02-04)"
   xmlns:inkscape="http://www.inkscape.org/namespaces/inkscape"
   xmlns:sodipodi="http://sodipodi.sourceforge.net/DTD/sodipodi-0.dtd"
   xmlns="http://www.w3.org/2000/svg"
   xmlns:svg="http://www.w3.org/2000/svg">
  <defs
     id="defs7" />
  <sodipodi:namedview
     id="namedview5"
     pagecolor="#505050"
     bordercolor="#ffffff"
     borderopacity="1"
     inkscape:pageshadow="0"
     inkscape:pageopacity="0"
     inkscape:pagecheckerboard="1"
     inkscape:document-units="mm"
     showgrid="false"
     inkscape:zoom="0.23098125"
     inkscape:cx="1062.8568"
     inkscape:cy="1887.5991"
     inkscape:window-width="3440"
     inkscape:window-height="1389"
     inkscape:window-x="0"
     inkscape:window-y="27"
     inkscape:window-maximized="1"
     inkscape:current-layer="svg3" />
  <path
     id="path"
     style="opacity:1;vector-effect:none;fill:#297d98;fill-opacity:1;stroke-width:1.17367"
     d="m 911.76388,125.6959 c 48.12028,0 88.02485,39.9046 88.02485,88.02485 0,0 0,586.83237 0,586.83237 0,48.12025 -39.90457,88.02485 -88.02485,88.02485 0,0 -821.565281,0 -821.565281,0 -48.120252,0 -88.0248521,-39.9046 -88.0248521,-88.02485 0,0 0,-586.83237 0,-586.83237 0,-48.12025 39.9046001,-88.02485 88.0248521,-88.02485 0,0 821.565281,0 821.565281,0 M 60.856988,213.72075 c 0,0 0,88.02485 0,88.02485 0,0 880.248512,0 880.248512,0 0,0 0,-88.02485 0,-88.02485 0,-16.43131 -12.91032,-29.34162 -29.34162,-29.34162 0,0 -821.565281,0 -821.565281,0 -16.431304,0 -29.341611,12.91031 -29.341611,29.34162 0,0 0,0 0,0 M 735.7142,243.06236 c 0,16.43131 -12.91032,29.34162 -29.34162,29.34162 -16.4313,0 -29.34162,-12.91031 -29.34162,-29.34162 0,-16.4313 12.91032,-29.34161 29.34162,-29.34161 16.4313,0 29.34162,12.91031 29.34162,29.34161 0,0 0,0 0,0 m 88.02485,0 c 0,16.43131 -12.9103,29.34162 -29.34161,29.34162 -16.43131,0 -29.34162,-12.91031 -29.34162,-29.34162 0,-16.4313 12.91031,-29.34161 29.34162,-29.34161 16.43131,0 29.34161,12.91031 29.34161,29.34161 0,0 0,0 0,0 m 88.02483,0 c 0,16.43131 -12.91028,29.34162 -29.34159,29.34162 -16.4313,0 -29.34162,-12.91031 -29.34162,-29.34162 0,-16.4313 12.91032,-29.34161 29.34162,-29.34161 16.43131,0 29.34159,12.91031 29.34159,29.34161 0,0 0,0 0,0 M 60.856988,800.55312 c 0,16.4313 12.910307,29.34161 29.341611,29.34161 0,0 821.565281,0 821.565281,0 16.4313,0 29.34162,-12.91031 29.34162,-29.34161 0,0 0,-440.12428 0,-440.12428 0,0 -880.248512,0 -880.248512,0 0,0 0,440.12428 0,440.12428 M 412.9564,419.11207 c 31.68894,0 58.68324,26.9943 58.68324,58.68324 0,0 0,234.73295 0,234.73295 0,31.68895 -26.9943,58.68324 -58.68324,58.68324 0,0 -234.73295,0 -234.73295,0 -31.68895,0 -58.68324,-26.99429 -58.68324,-58.68324 0,0 0,-234.73295 0,-234.73295 0,-31.68894 26.99429,-58.68324 58.68324,-58.68324 0,0 234.73295,0 234.73295,0 m 205.39133,0 c 31.68895,0 58.68323,26.9943 58.68323,58.68324 0,0 0,29.34162 0,29.34162 0,31.68895 -26.99428,58.68323 -58.68323,58.68323 0,0 -29.34162,0 -29.34162,0 -31.68895,0 -58.68324,-26.99428 -58.68324,-58.68323 0,0 0,-29.34162 0,-29.34162 0,-31.68894 26.99429,-58.68324 58.68324,-58.68324 0,0 29.34162,0 29.34162,0 m 205.39132,0 c 31.68895,0 58.68324,26.9943 58.68324,58.68324 0,0 0,29.34162 0,29.34162 0,31.68895 -26.99429,58.68323 -58.68324,58.68323 0,0 -58.68323,0 -58.68323,0 -31.68895,0 -58.68324,-26.99428 -58.68324,-58.68323 0,0 0,-29.34162 0,-29.34162 0,-31.68894 26.99429,-58.68324 58.68324,-58.68324 0,0 58.68323,0 58.68323,0 m -645.5156,293.41619 c 0,0 234.73295,0 234.73295,0 0,0 0,-234.73295 0,-234.73295 0,0 -234.73295,0 -234.73295,0 0,0 0,234.73295 0,234.73295 M 589.00611,507.13693 c 0,0 29.34162,0 29.34162,0 0,0 0,-29.34162 0,-29.34162 0,0 -29.34162,0 -29.34162,0 0,0 0,29.34162 0,29.34162 m 176.04971,0 c 0,0 58.68323,0 58.68323,0 0,0 0,-29.34162 0,-29.34162 0,0 -58.68323,0 -58.68323,0 0,0 0,29.34162 0,29.34162 m 58.68323,88.02486 c 31.68895,0 58.68324,26.99429 58.68324,58.68324 0,0 0,58.68323 0,58.68323 0,31.68895 -26.99429,58.68324 -58.68324,58.68324 0,0 -234.73294,0 -234.73294,0 -31.68895,0 -58.68324,-26.99429 -58.68324,-58.68324 0,0 0,-58.68323 0,-58.68323 0,-31.68895 26.99429,-58.68324 58.68324,-58.68324 0,0 234.73294,0 234.73294,0 M 589.00611,712.52826 c 0,0 234.73294,0 234.73294,0 0,0 0,-58.68323 0,-58.68323 0,0 -234.73294,0 -234.73294,0 0,0 0,58.68323 0,58.68323" />
</svg>
