<?xml version="1.0" encoding="UTF-8" standalone="no"?>
<svg
   fill="none"
   stroke="currentColor"
   stroke-linecap="round"
   stroke-linejoin="round"
   stroke-width="2"
   viewBox="0 0 24 24"
   version="1.1"
   id="svg6"
   sodipodi:docname="overlay.svg"
   inkscape:version="1.1.2 (0a00cf5339, 2022-02-04)"
   xmlns:inkscape="http://www.inkscape.org/namespaces/inkscape"
   xmlns:sodipodi="http://sodipodi.sourceforge.net/DTD/sodipodi-0.dtd"
   xmlns="http://www.w3.org/2000/svg"
   xmlns:svg="http://www.w3.org/2000/svg">
  <defs
     id="defs10" />
  <sodipodi:namedview
     id="namedview8"
     pagecolor="#505050"
     bordercolor="#ffffff"
     borderopacity="1"
     inkscape:pageshadow="0"
     inkscape:pageopacity="0"
     inkscape:pagecheckerboard="1"
     showgrid="false"
     inkscape:zoom="36.375"
     inkscape:cx="12"
     inkscape:cy="11.986254"
     inkscape:window-width="3440"
     inkscape:window-height="1389"
     inkscape:window-x="0"
     inkscape:window-y="27"
     inkscape:window-maximized="1"
     inkscape:current-layer="svg6" />
  <path
     d="M 1.3369753,4.0285761 A 2.6620641,2.6620641 0 0 1 3.9990394,1.366512 h 9.3172246 a 2.6620641,2.6620641 0 0 1 2.662064,2.6620641 v 9.3172249 a 2.6620641,2.6620641 0 0 1 -2.662064,2.662064 H 3.9990394 A 2.6620641,2.6620641 0 0 1 1.3369753,13.345801 Z"
     id="path2"
     style="stroke:#297d98;stroke-width:2.66206;stroke-opacity:1" />
  <path
     d="M 7.9921355,10.683736 A 2.6620641,2.6620641 0 0 1 10.654199,8.0216723 h 9.317225 a 2.6620641,2.6620641 0 0 1 2.662064,2.6620637 v 9.317224 a 2.6620641,2.6620641 0 0 1 -2.662064,2.662064 H 10.654199 A 2.6620641,2.6620641 0 0 1 7.9921355,20.00096 Z"
     id="path4"
     style="stroke:#297d98;stroke-width:2.66206;stroke-opacity:1" />
</svg>
